:SAMPLES-PER-SECOND 30
:FULLY-SPECIFIED
:DEGREES
219
root  35.00849206 36.48921636 -14.99925749 7.874869823 -7.545153141 4.352917194
lowerback  -7.596315384 -1.151415348 -1.044119239
upperback  -3.656080008 -1.001594663 -3.920340061
thorax  0.4292699993 -0.3397701383 -3.539710045
lowerneck  -1.652819991 -17.89389992 -12.28499985
upperneck  12.84420013 -25.35020065 15.27359962
head  7.777390003 -11.7869997 4.292900085
lclavicle  0 -4.497500157e-015 -2.743230041e-014
lhumerus  -46.83160019 27.7322998 64.07959747
lradius  0.004719055258 -6.507048965e-006 29.92143059
lwrist  4.824992743e-007 -3.790274832e-007 -29.09370041
lhand  -4.439093829e-031 -37.30120087 -10.59599972
lfingers  90 7.125020027 -90
lthumb  94.9866757 -25.41882131 101.4905309
rclavicle  0 -4.497500157e-015 -2.743230041e-014
rhumerus  -27.10140038 -41.36410141 -3.804061413
rradius  -5.16745672e-007 2.214343908e-008 44.27109909
rwrist  -7.499573258e-005 0.03438235447 -164.095993
rhand  -1.770577042e-031 4.31317997 -7.644229889
rfingers  -90 -7.125020027 -90
rthumb  -85.14827443 -8.429407897 -59.92754636
rfemur  -12.81144905 17.1462841 11.74877071
rtibia  -1.625167966 -1.693210363 21.72259712
rfoot  0.1436291188 -22.68783188 -34.92786407
rtoes  3.835597022 19.64355754 -101.278865
lfemur  -8.375123978 -17.68511391 -21.5042057
ltibia  1.954263687 -2.631362438 15.8521347
lfoot  1.108923554 -21.25149918 39.60628891
ltoes  -8.701579674 -18.0780474 -116.2530693
220
root  35.0071494 36.48953175 -14.99924697 7.872976303 -7.520858288 4.347700119
lowerback  -7.585515022 -1.15114212 -1.037691593
upperback  -3.666800022 -1.001024246 -3.91692996
thorax  0.41218099 -0.3385490477 -3.53986001
lowerneck  -1.992040038 -17.65270042 -12.03419971
upperneck  12.94089985 -24.9822998 15.06729984
head  7.751699924 -11.59449959 4.231900215
lclavicle  0 -4.497500157e-015 -2.743230041e-014
lhumerus  -46.8219986 27.73360062 64.10230255
lradius  0.004719055258 -6.507048965e-006 29.92307281
lwrist  4.824992743e-007 -3.790274832e-007 -29.11809921
lhand  -4.437294816e-031 -37.27069855 -10.64210033
lfingers  90 7.125020027 -90
lthumb  94.98254316 -25.46518956 101.4622172
rclavicle  0 -4.497500157e-015 -2.743230041e-014
rhumerus  -27.41139984 -41.28279495 -3.753210783
rradius  -5.16745672e-007 2.214343908e-008 44.73350143
rwrist  -7.499573258e-005 0.03438235447 -164.2519989
rhand  -1.770691619e-031 4.36206007 -7.483320236
rfingers  -90 -7.125020027 -90
rthumb  -85.05548036 -8.571896007 -59.86791121
rfemur  -12.81007862 17.14032364 11.76421928
rtibia  -1.627910495 -1.689257264 21.73520851
rfoot  0.1302369684 -22.69744682 -34.94457245
rtoes  3.864866905 19.63803791 -101.3659461
lfemur  -8.3325634 -17.73836899 -21.51021004
ltibia  1.980143666 -2.618748426 15.80093288
lfoot  1.122899532 -21.24476624 39.67512512
ltoes  -8.66697179 -18.09423329 -116.1415916
221
root  35.00565056 36.48954677 -14.9991884 7.863280296 -7.493699551 4.338544846
lowerback  -7.605739594 -1.15047586 -1.055847406
upperback  -3.668070078 -0.9999369383 -3.914947033
thorax  0.4224269986 -0.3373740911 -3.528520107
lowerneck  -2.341690063 -17.39349937 -11.72410011
upperneck  13.04440022 -24.58860016 14.83139992
head  7.716609955 -11.38819981 4.157680035
lclavicle  0 -4.497500157e-015 -2.743230041e-014
lhumerus  -46.81890106 27.75460052 64.10179901
lradius  0.004719055258 -6.507048965e-006 29.9213028
lwrist  4.824992743e-007 -3.790274832e-007 -29.12899971
lhand  -0 -37.25329971 -10.63650036
lfingers  90 7.125020027 -90
lthumb  94.97321377 -25.46036688 101.4431855
rclavicle  0 -4.497500157e-015 -2.743230041e-014
rhumerus  -27.66430092 -40.87449646 -3.738573074
rradius  -5.16745672e-007 2.214343908e-008 45.17900085
rwrist  -7.499573258e-005 0.03438235447 -164.7619934
rhand  -1.770786731e-031 4.402219772 -7.467299938
rfingers  -90 -7.125020027 -90
rthumb  -85.03814071 -8.588304392 -59.8275929
rfemur  -12.7914257 17.15468979 11.78283978
rtibia  -1.628582239 -1.675533056 21.73369598
rfoot  0.1188687012 -22.68719482 -34.98555374
rtoes  3.836736516 19.64334348 -101.2822547
lfemur  -8.302472115 -17.72760963 -21.50520134
ltibia  1.988915324 -2.602552176 15.77543545
lfoot  1.114002109 -21.25949287 39.6521492
ltoes  -8.663999644 -18.09561957 -116.1320223
222
root  35.00459626 36.48968193 -14.99913283 7.855595112 -7.478280067 4.340487003
lowerback  -7.615780354 -1.149722099 -1.051120162
upperback  -3.678649902 -0.9986312389 -3.913456202
thorax  0.4174819887 -0.3361696899 -3.523869991
lowerneck  -2.627569914 -17.06389999 -11.56519985
upperneck  13.11800003 -24.11220169 14.74370003
head  7.691219807 -11.14369965 4.164209843
lclavicle  0 -4.497500157e-015 -2.743230041e-014
lhumerus  -46.83660126 27.78720093 64.08699799
lradius  0.004719055258 -6.507048965e-006 29.91889954
lwrist  4.824992743e-007 -3.790274832e-007 -29.18169975
lhand  -0 -37.23020172 -10.63659954
lfingers  90 7.125020027 -90
lthumb  94.96241608 -25.46131841 101.4184844
rclavicle  0 -4.497500157e-015 -2.743230041e-014
rhumerus  -27.96319771 -40.79710007 -3.677321196
rradius  -5.16745672e-007 2.214343908e-008 45.66899872
rwrist  -7.499573258e-005 0.03438235447 -164.9660034
rhand  -1.770724771e-031 4.376100063 -7.50936985
rfingers  -90 -7.125020027 -90
rthumb  -85.06550427 -8.550245295 -59.8562009
rfemur  -12.76971626 17.14237976 11.78199959
rtibia  -1.624841571 -1.691351771 21.71733093
rfoot  0.1124549136 -22.72058296 -35.01070404
rtoes  3.83755572 19.64318954 -101.2846916
lfemur  -8.275307655 -17.7036705 -21.50871468
ltibia  2.006361723 -2.573970556 15.74450874
lfoot  1.119573236 -21.30567741 39.6450386
ltoes  -8.65149572 -18.10144517 -116.0917717
223
root  35.00289917 36.49041183 -14.99899767 7.853049755 -7.449864388 4.327229023
lowerback  -7.616860867 -1.148647785 -1.053205848
upperback  -3.682019949 -0.9974054098 -3.911129951
thorax  0.4146809876 -0.3348604143 -3.522559881
lowerneck  -2.930069923 -16.74449921 -11.17399979
upperneck  13.06809998 -23.62630081 14.48770046
head  7.577040195 -10.90380001 4.093959808
lclavicle  0 -4.497500157e-015 -2.743230041e-014
lhumerus  -46.82160187 27.81170082 64.09490204
lradius  0.004719055258 -6.507048965e-006 29.91799927
lwrist  4.824992743e-007 -3.790274832e-007 -29.1609993
lhand  -4.433634775e-031 -37.20849991 -10.68550014
lfingers  90 7.125020027 -90
lthumb  94.96296558 -25.50998002 101.3999255
rclavicle  0 -4.497500157e-015 -2.743230041e-014
rhumerus  -28.28019905 -40.77719879 -3.599529505
rradius  -5.16745672e-007 2.214343908e-008 46.15710068
rwrist  -7.499573258e-005 0.03438235447 -165.2660065
rhand  -1.770893344e-031 4.446800232 -7.493040085
rfingers  -90 -7.125020027 -90
rthumb  -85.04094474 -8.56897586 -59.7860468
rfemur  -12.74510384 17.13031006 11.79886913
rtibia  -1.615430593 -1.685356259 21.68671036
rfoot  0.1184967905 -22.70833206 -35.04050827
rtoes  3.84485621 19.6418162 -101.3064096
lfemur  -8.346047401 -17.71115875 -21.46342468
ltibia  1.944509268 -2.606770277 15.84597397
lfoot  1.076583505 -21.28279305 39.52302933
ltoes  -8.647520468 -18.10329503 -116.0789779
224
root  35.0017878 36.49318124 -14.99887301 7.851034164 -7.436306953 4.319050312
lowerback  -7.602993965 -1.146646619 -1.058466434
upperback  -3.691009998 -0.9965580106 -3.906689882
thorax  0.3979560137 -0.3333707452 -3.515929937
lowerneck  -3.293149948 -16.41690063 -10.8448
upperneck  13.10529995 -23.13780022 14.25160027
head  7.514929771 -10.65600014 4.028349876
lclavicle  0 -4.497500157e-015 -2.743230041e-014
lhumerus  -46.82580185 27.65539932 64.16570282
lradius  0.004719055258 -6.507048965e-006 29.97739983
lwrist  4.824992743e-007 -3.790274832e-007 -28.91769981
lhand  -4.434481161e-031 -37.22290039 -10.67010021
lfingers  90 7.125020027 -90
lthumb  94.9663501 -25.49436754 101.4138811
rclavicle  0 -4.497500157e-015 -2.743230041e-014
rhumerus  -28.63959885 -40.45259476 -3.559922934
rradius  -5.16745672e-007 2.214343908e-008 46.73460007
rwrist  -7.499573258e-005 0.03438235447 -165.8500061
rhand  -1.77083316e-031 4.421689987 -7.504950047
rfingers  -90 -7.125020027 -90
rthumb  -85.0527867 -8.5570461 -59.81145403
rfemur  -12.73984146 17.13588524 11.81043816
rtibia  -1.612733841 -1.65538168 21.67793274
rfoot  0.137013346 -22.64245605 -35.03158188
rtoes  3.84695699 19.64142051 -101.3126594
lfemur  -8.36208725 -17.71921349 -21.450737
ltibia  1.931406736 -2.594735622 15.86819458
lfoot  1.076602936 -21.32056999 39.51906586
ltoes  -8.671783709 -18.09198763 -116.1570858
225
root  35.00003965 36.4949324 -14.99865374 7.848842621 -7.408509731 4.314883232
lowerback  -7.619547367 -1.144318104 -1.06312716
upperback  -3.692780018 -0.9962390065 -3.896209955
thorax  0.4055779874 -0.3314510882 -3.503230095
lowerneck  -3.618340015 -16.09320068 -10.54220009
upperneck  13.11349964 -22.65559769 14.01550007
head  7.443920135 -10.41679955 3.967060089
lclavicle  0 -4.497500157e-015 -2.743230041e-014
lhumerus  -46.83459854 27.76119995 64.14060211
lradius  0.004719055258 -6.507048965e-006 29.98069954
lwrist  4.824992743e-007 -3.790274832e-007 -29.01140022
lhand  -4.430770962e-031 -37.15969849 -10.68480015
lfingers  90 7.125020027 -90
lthumb  94.93991806 -25.51110583 101.34765
rclavicle  0 -4.497500157e-015 -2.743230041e-014
rhumerus  -28.94560242 -40.21370316 -3.497518778
rradius  -5.16745672e-007 2.214343908e-008 47.25849915
rwrist  -7.499573258e-005 0.03438235447 -166.3690033
rhand  -1.770769164e-031 4.394830227 -7.431000233
rfingers  -90 -7.125020027 -90
rthumb  -85.02135534 -8.61925524 -59.83197697
rfemur  -12.72244835 17.13525963 11.82084846
rtibia  -1.610800862 -1.652931333 21.67399788
rfoot  0.1262134165 -22.64950752 -35.06868362
rtoes  3.832712048 19.64409921 -101.2702832
lfemur  -8.334177017 -17.68882179 -21.44941139
ltibia  1.945420384 -2.569637299 15.84065819
lfoot  1.074162841 -21.35622597 39.4909668
ltoes  -8.681632681 -18.08738637 -116.188805
226
root  34.99893729 36.49376096 -14.99844799 7.845594883 -7.397253513 4.308785915
lowerback  -7.613719463 -1.141703963 -1.067659855
upperback  -3.703370094 -0.9872710109 -3.898099899
thorax  0.3919459879 -0.3298562467 -3.501899958
lowerneck  -3.887000084 -15.74510002 -10.18980026
upperneck  13.03919983 -22.13500023 13.74580002
head  7.324560165 -10.16749954 3.899790049
lclavicle  0 -4.497500157e-015 -2.743230041e-014
lhumerus  -46.84609985 27.83119965 64.10230255
lradius  0.004719055258 -6.507048965e-006 29.97229767
lwrist  4.824992743e-007 -3.790274832e-007 -29.12579918
lhand  -0 -37.13899994 -10.70250034
lfingers  90 7.125020027 -90
lthumb  94.93404325 -25.52919997 101.3271377
rclavicle  0 -4.497500157e-015 -2.743230041e-014
rhumerus  -29.37039948 -40.00080109 -3.458500147
rradius  -5.16745672e-007 2.214343908e-008 47.8885994
rwrist  -7.499573258e-005 0.03438235447 -166.8280029
rhand  -1.770694731e-031 4.363379955 -7.394499779
rfingers  -90 -7.125020027 -90
rthumb  -85.01009337 -8.648751005 -59.85983484
rfemur  -12.70850563 17.11875534 11.82794189
rtibia  -1.602988243 -1.663227677 21.66150284
rfoot  0.1399212629 -22.68083572 -35.03289413
rtoes  3.841579963 19.64243285 -101.296663
lfemur  -8.31515789 -17.62909126 -21.43863678
ltibia  1.954476237 -2.52435565 15.80807018
lfoot  1.078919172 -21.43195724 39.48180008
ltoes  -8.667908231 -18.09379639 -116.1446068
